<svg width="188" height="28" viewBox="0 0 188 28" fill="none" xmlns="http://www.w3.org/2000/svg">
<path fill-rule="evenodd" clip-rule="evenodd" d="M0 10.3686C0 13.4792 1.69584 16.321 4.31669 18.2027C4.54795 18.3563 4.66357 18.5867 4.66357 18.8939C4.66357 18.9707 4.62503 19.0859 4.62503 19.1627C4.43232 19.9308 4.08544 21.1981 4.0469 21.2365C4.00836 21.3517 3.96982 21.4285 3.96982 21.5437C3.96982 21.7741 4.16253 21.9661 4.39378 21.9661C4.47086 21.9661 4.54795 21.9277 4.62503 21.8893L7.36151 20.3148C7.55422 20.1996 7.78547 20.1228 8.01672 20.1228C8.13234 20.1228 8.28651 20.1228 8.40214 20.1612C9.67402 20.5452 11.0615 20.7372 12.4876 20.7372C19.3866 20.7372 24.9752 16.0906 24.9752 10.3686C24.9752 4.64668 19.3866 0 12.4876 0C5.58858 0 0 4.64668 0 10.3686" fill="url(#paint0_linear_4_215)"/>
<path fill-rule="evenodd" clip-rule="evenodd" d="M24.1226 26.8393C25.3145 26.8393 26.468 26.6845 27.5061 26.375C27.583 26.3363 27.6983 26.3363 27.8137 26.3363C28.0059 26.3363 28.1982 26.4137 28.352 26.4911L30.6205 27.8066C30.6974 27.8453 30.7358 27.8839 30.8127 27.8839C31.005 27.8839 31.1587 27.7292 31.1587 27.5357C31.1587 27.4583 31.1203 27.381 31.1203 27.2649C31.1203 27.2262 30.8127 26.1816 30.6589 25.5238C30.6205 25.4464 30.6205 25.369 30.6205 25.2917C30.6205 25.0595 30.7358 24.8661 30.9281 24.7113C33.1196 23.125 34.5038 20.7648 34.5038 18.1339C34.5038 13.3362 29.8515 9.42841 24.1226 9.42841C18.3937 9.42841 13.7413 13.2975 13.7413 18.1339C13.7413 22.9315 18.3937 26.8393 24.1226 26.8393Z" fill="url(#paint1_linear_4_215)"/>
<path fill-rule="evenodd" clip-rule="evenodd" d="M9.92987 7.02114C9.92987 7.91685 9.22076 8.62596 8.32504 8.62596C7.42933 8.62596 6.72021 7.91685 6.72021 7.02114C6.72021 6.12542 7.42933 5.41631 8.32504 5.41631C9.22076 5.41631 9.92987 6.12542 9.92987 7.02114" fill="#168743"/>
<path fill-rule="evenodd" clip-rule="evenodd" d="M18.2549 7.02114C18.2549 7.91685 17.5458 8.62596 16.6501 8.62596C15.7544 8.62596 15.0453 7.91685 15.0453 7.02114C15.0453 6.12542 15.7544 5.41631 16.6501 5.41631C17.5458 5.41631 18.2549 6.12542 18.2549 7.02114" fill="#168743"/>
<path fill-rule="evenodd" clip-rule="evenodd" d="M26.2791 15.4465C26.2791 16.2266 26.9032 16.8507 27.6833 16.8507C28.4634 16.8507 29.0875 16.2266 29.0875 15.4465C29.0875 14.6664 28.4634 14.0423 27.6833 14.0423C26.9032 14.0423 26.2791 14.6664 26.2791 15.4465" fill="#919191"/>
<path fill-rule="evenodd" clip-rule="evenodd" d="M19.3583 15.4465C19.3583 16.2266 19.9824 16.8507 20.7625 16.8507C21.5426 16.8507 22.1667 16.2266 22.1667 15.4465C22.1667 14.6664 21.5426 14.0423 20.7625 14.0423C19.9824 14.0423 19.3583 14.6664 19.3583 15.4465" fill="#919191"/>
<path fill-rule="evenodd" clip-rule="evenodd" d="M105.382 3.43191C107.167 8.20656 109.219 10.884 113.057 13.4274L111.897 14.9446C108.015 12.1779 105.65 9.233 103.776 4.0122L105.382 3.43191ZM105.471 15.2122C107.033 17.4433 109.487 21.1915 110.96 23.4228L109.398 24.4489C109.041 23.869 108.595 23.1997 108.104 22.441C105.784 22.5748 97.3499 22.9764 96.2345 23.0213C95.4758 23.0659 94.7173 23.1997 93.9586 23.3336L93.4232 21.5487C94.3601 21.3253 94.6727 21.1469 95.0296 20.7453C97.0376 18.4697 99.4025 14.543 101.053 11.0622L102.794 11.7317C101.187 15.123 98.8671 18.9158 96.9037 21.2807C98.0637 21.2361 104.356 20.9238 107.033 20.79C105.917 19.0943 104.757 17.354 103.999 16.1938L105.471 15.2122ZM98.9117 3.74424L100.607 4.32453C98.8671 8.56351 96.1453 12.0887 92.486 14.9892L91.326 13.5166C94.8958 10.7948 97.3945 7.58199 98.9117 3.74424V3.74424Z" fill="#4C4C4C"/>
<path fill-rule="evenodd" clip-rule="evenodd" d="M129.612 12.8919C129.656 12.2227 129.746 11.0624 129.746 10.6609H131.62L131.486 12.9365L131.441 13.3826C132.066 17.3096 134.163 20.3437 137.912 22.9766L136.662 24.4492C133.851 22.352 131.798 19.9422 130.727 16.997C129.746 19.853 127.916 22.1735 124.882 24.7615L123.409 23.3781C127.648 19.9868 129.299 17.1758 129.612 12.8919M126.176 3.52107H127.916C130.058 6.77884 133.271 9.27755 137.778 11.464L136.796 13.2042C132.423 11.0178 129.299 8.47418 127.068 5.44011C124.926 8.38527 121.803 10.884 117.251 13.2042L116.27 11.464C120.91 9.23294 124.079 6.64469 126.176 3.52107M121.491 12.7581L121.625 10.7055H123.454C123.454 11.0178 123.365 12.5796 123.32 12.8919L123.231 13.8288L127.202 18.1127L125.864 19.4069C125.105 18.5143 123.9 17.1312 122.829 16.0156C122.071 19.0946 120.553 21.5487 117.742 24.4938L116.18 23.2443C119.795 19.7192 121.178 17.1312 121.491 12.7581" fill="#4C4C4C"/>
<path fill-rule="evenodd" clip-rule="evenodd" d="M71.2572 3.35326L72.9154 4.00481C72.4144 5.76924 71.9088 7.21239 71.2646 8.76212V24.9912H69.5241V12.2436C68.9041 13.2688 68.3424 14.1121 67.6035 15.1135L66.2669 13.877C68.4539 11.012 70.2983 7.34747 71.2572 3.35326" fill="#4C4C4C"/>
<path fill-rule="evenodd" clip-rule="evenodd" d="M80.5532 3.30377C80.9107 3.94758 81.7085 5.43875 82.1856 6.39269H88.4564V8.0617H72.9576V6.39269H80.1591C79.7058 5.55803 79.2736 4.74413 78.9635 4.2196L80.5532 3.30377Z" fill="#4C4C4C"/>
<mask id="mask0_4_215" style="mask-type:alpha" maskUnits="userSpaceOnUse" x="40" y="3" width="147" height="22">
<path fill-rule="evenodd" clip-rule="evenodd" d="M40.7003 24.9913H186.667V3.09839H40.7003V24.9913Z" fill="white"/>
</mask>
<g mask="url(#mask0_4_215)">
<path fill-rule="evenodd" clip-rule="evenodd" d="M74.8268 11.6144H86.7193V10.0886H74.8268V11.6144Z" fill="#4C4C4C"/>
<path fill-rule="evenodd" clip-rule="evenodd" d="M74.8268 15.1436H86.7193V13.5938H74.8268V15.1436Z" fill="#4C4C4C"/>
<path fill-rule="evenodd" clip-rule="evenodd" d="M76.6151 22.8154H84.9313V18.7202H76.6151V22.8154ZM74.8268 17.1227V24.3967H76.6151H84.9313H86.7193V17.1227H74.8268Z" fill="#4C4C4C"/>
<path fill-rule="evenodd" clip-rule="evenodd" d="M45.3106 8.82895L46.7249 9.63355C46.2859 10.585 45.9848 11.1892 45.375 12.2137L45.389 24.9889H43.7785L43.7643 14.6536C43.1056 15.5564 42.6898 16.0831 42.0311 16.8152L40.7609 15.6295C42.4122 13.9153 44.2126 11.2201 45.3106 8.82895" fill="#4C4C4C"/>
<path fill-rule="evenodd" clip-rule="evenodd" d="M45.0438 3.37897L46.5319 4.2285C45.4581 6.1559 43.6038 8.69364 41.9692 10.5234L40.7001 9.35232C42.2864 7.6198 44.0679 5.20877 45.0438 3.37897" fill="#4C4C4C"/>
<path fill-rule="evenodd" clip-rule="evenodd" d="M47.3707 13.294H54.9322V11.7421H47.3707V13.294Z" fill="#4C4C4C"/>
<path fill-rule="evenodd" clip-rule="evenodd" d="M49.2352 5.02184V8.73938H50.7301V3.30605H52.2984V8.73938H53.7933V5.01688L55.3387 5.02091V10.2076H47.7595V5.02091L49.2352 5.02184Z" fill="#4C4C4C"/>
<path fill-rule="evenodd" clip-rule="evenodd" d="M56.2427 17.9212C56.2427 17.9212 55.0093 19.0982 54.6592 19.3991V14.9724H48.0476L48.046 18.3949C48.046 20.8611 47.4961 21.9415 46.4625 23.0581L47.6485 24.1601C49.2596 22.4143 49.601 21.0278 49.601 18.7286V16.5593L53.0955 16.5583C53.0955 16.5583 53.1621 20.358 53.0447 20.9386L54.1018 21.9266C54.1018 21.9266 56.6147 19.6451 57.3881 18.992L56.2427 17.9212Z" fill="#4C4C4C"/>
<path fill-rule="evenodd" clip-rule="evenodd" d="M59.8874 16.3314C59.0828 14.3904 58.7247 13.2943 58.237 11.2073C58.4771 10.3968 58.7101 9.10176 58.8015 8.02884H61.2097C61.0895 11.5772 60.6369 14.3526 59.8874 16.3314M60.8135 18.1925C61.9394 15.7524 62.5801 12.3964 62.6374 8.02822L63.7174 8.03008V6.39113L59.0332 6.39701C59.0943 5.4911 59.0748 4.45505 59.0748 3.88065H57.5665C57.5854 6.20492 57.3261 8.42232 56.9875 9.98103C56.6092 11.7194 56.0075 13.4076 55.3386 14.4121L56.5135 15.4621C56.849 14.931 57.1331 14.4037 57.4851 13.6447C58.092 15.8509 58.3634 16.456 59.111 18.1361C58.039 20.3501 56.6975 22.307 55.4663 23.7749L56.739 24.9002C57.3599 24.1327 58.7361 22.2896 60.0089 19.8259C60.5808 20.896 61.7795 22.7683 63.1817 24.8645L64.4517 23.571C63.3125 22.1418 61.7346 19.9536 60.8135 18.1925" fill="#4C4C4C"/>
<path fill-rule="evenodd" clip-rule="evenodd" d="M158.96 7.50984L160.415 8.5118C159.557 9.75233 157.481 12.6148 156.336 14.0461L154.905 13.0203C156.098 11.6128 158.102 8.79808 158.96 7.50984V7.50984ZM144.432 7.53369C145.459 8.86964 147.462 11.5412 148.536 13.0203L147.057 14.0223C145.983 12.4716 144.027 9.80003 143.049 8.53565L144.432 7.53369ZM150.802 15.2151V6.19775H141.976V4.43239H161.489V6.19775H152.663V15.2151H162.443V17.0043H152.663V24.5423H150.802V17.0043H140.997V15.2151H150.802Z" fill="#4C4C4C"/>
<path fill-rule="evenodd" clip-rule="evenodd" d="M170.421 21.8481H182.588V16.8625H170.421V21.8481ZM184.424 15.1213V24.9014H182.588V23.5896H170.421V24.9014H168.585V15.1213H184.424ZM180.083 5.60296C181.633 7.12976 184.878 10.4216 186.667 12.354L185.331 13.6422C184.878 13.1651 184.329 12.5448 183.709 11.9007C181.132 11.9723 170.755 12.2824 169.3 12.354C168.513 12.4017 167.75 12.4494 166.819 12.5925L166.342 10.8033C167.464 10.6125 167.893 10.4693 168.322 10.1353C170.302 8.65625 173.475 5.26897 174.978 3.09805L176.6 4.05261C174.978 6.19936 172.378 9.0618 170.517 10.5647C172.163 10.5409 179.009 10.3262 182.11 10.2308C180.846 8.89481 179.582 7.60688 178.795 6.81963L180.083 5.60296Z" fill="#4C4C4C"/>
</g>
<defs>
<linearGradient id="paint0_linear_4_215" x1="24.204" y1="20.6812" x2="24.204" y2="0.0958908" gradientUnits="userSpaceOnUse">
<stop stop-color="#05CD66"/>
<stop offset="1" stop-color="#61F380"/>
<stop offset="1" stop-color="#9EEE69"/>
</linearGradient>
<linearGradient id="paint1_linear_4_215" x1="33.8549" y1="26.6908" x2="33.8549" y2="9.42175" gradientUnits="userSpaceOnUse">
<stop stop-color="#E4E6E6"/>
<stop offset="1" stop-color="#F0F0F0"/>
</linearGradient>
</defs>
</svg>
